<mxfile host="app.diagrams.net" modified="2024-05-29T08:10:51.923Z" agent="Mozilla/5.0 (Windows NT 10.0; Win64; x64; rv:126.0) Gecko/20100101 Firefox/126.0" etag="g02un7kSwmYP8TG6QvxB" version="24.4.8" type="device">
  <diagram name="Pagina-1" id="ajutDv09fhjht6oRI2c2">
    <mxGraphModel dx="2514" dy="920" grid="1" gridSize="10" guides="1" tooltips="1" connect="1" arrows="1" fold="1" page="1" pageScale="1" pageWidth="827" pageHeight="1169" math="0" shadow="0">
      <root>
        <mxCell id="0" />
        <mxCell id="1" parent="0" />
        <mxCell id="04fwY_iwob0MZruxPa8H-21" style="edgeStyle=orthogonalEdgeStyle;rounded=0;orthogonalLoop=1;jettySize=auto;html=1;exitX=0;exitY=0.5;exitDx=0;exitDy=0;fontSize=18;" edge="1" parent="1" source="pOlsvwvT2F81IrnThFRr-1">
          <mxGeometry relative="1" as="geometry">
            <mxPoint x="-140" y="500" as="targetPoint" />
          </mxGeometry>
        </mxCell>
        <mxCell id="pOlsvwvT2F81IrnThFRr-1" value="&lt;div style=&quot;font-size: 18px;&quot;&gt;Document&lt;/div&gt;" style="rounded=1;whiteSpace=wrap;html=1;fontSize=18;" parent="1" vertex="1">
          <mxGeometry x="-120" y="400" width="120" height="60" as="geometry" />
        </mxCell>
        <mxCell id="pOlsvwvT2F81IrnThFRr-6" style="edgeStyle=orthogonalEdgeStyle;rounded=0;orthogonalLoop=1;jettySize=auto;html=1;exitX=0.5;exitY=1;exitDx=0;exitDy=0;entryX=0.5;entryY=0;entryDx=0;entryDy=0;fontSize=18;" parent="1" source="pOlsvwvT2F81IrnThFRr-2" target="pOlsvwvT2F81IrnThFRr-3" edge="1">
          <mxGeometry relative="1" as="geometry" />
        </mxCell>
        <mxCell id="pOlsvwvT2F81IrnThFRr-12" style="edgeStyle=orthogonalEdgeStyle;rounded=0;orthogonalLoop=1;jettySize=auto;html=1;exitX=0.5;exitY=1;exitDx=0;exitDy=0;entryX=0.5;entryY=0;entryDx=0;entryDy=0;fontSize=18;" parent="1" source="pOlsvwvT2F81IrnThFRr-2" target="pOlsvwvT2F81IrnThFRr-8" edge="1">
          <mxGeometry relative="1" as="geometry" />
        </mxCell>
        <mxCell id="pOlsvwvT2F81IrnThFRr-2" value="&lt;div style=&quot;font-size: 18px;&quot;&gt;Corpus&lt;/div&gt;" style="rounded=1;whiteSpace=wrap;html=1;fontSize=18;" parent="1" vertex="1">
          <mxGeometry x="-200" y="200" width="120" height="60" as="geometry" />
        </mxCell>
        <mxCell id="pOlsvwvT2F81IrnThFRr-7" style="edgeStyle=orthogonalEdgeStyle;rounded=0;orthogonalLoop=1;jettySize=auto;html=1;exitX=0.5;exitY=1;exitDx=0;exitDy=0;entryX=0.5;entryY=0;entryDx=0;entryDy=0;fontSize=18;" parent="1" source="pOlsvwvT2F81IrnThFRr-3" target="pOlsvwvT2F81IrnThFRr-1" edge="1">
          <mxGeometry relative="1" as="geometry" />
        </mxCell>
        <mxCell id="pOlsvwvT2F81IrnThFRr-3" value="Documents" style="rounded=1;whiteSpace=wrap;html=1;fontSize=18;" parent="1" vertex="1">
          <mxGeometry x="-120" y="300" width="120" height="60" as="geometry" />
        </mxCell>
        <mxCell id="pOlsvwvT2F81IrnThFRr-13" style="edgeStyle=orthogonalEdgeStyle;rounded=0;orthogonalLoop=1;jettySize=auto;html=1;exitX=0.5;exitY=1;exitDx=0;exitDy=0;entryX=0.5;entryY=0;entryDx=0;entryDy=0;fontSize=18;" parent="1" source="pOlsvwvT2F81IrnThFRr-8" target="pOlsvwvT2F81IrnThFRr-11" edge="1">
          <mxGeometry relative="1" as="geometry" />
        </mxCell>
        <mxCell id="pOlsvwvT2F81IrnThFRr-8" value="Jobs" style="rounded=1;whiteSpace=wrap;html=1;fontSize=18;" parent="1" vertex="1">
          <mxGeometry x="-280" y="300" width="120" height="60" as="geometry" />
        </mxCell>
        <mxCell id="04fwY_iwob0MZruxPa8H-19" style="edgeStyle=orthogonalEdgeStyle;rounded=0;orthogonalLoop=1;jettySize=auto;html=1;exitX=0.5;exitY=1;exitDx=0;exitDy=0;entryX=0.5;entryY=0;entryDx=0;entryDy=0;fontSize=18;" edge="1" parent="1" source="pOlsvwvT2F81IrnThFRr-9" target="pOlsvwvT2F81IrnThFRr-10">
          <mxGeometry relative="1" as="geometry" />
        </mxCell>
        <mxCell id="pOlsvwvT2F81IrnThFRr-9" value="DocumentJob" style="rounded=1;whiteSpace=wrap;html=1;fontSize=18;" parent="1" vertex="1">
          <mxGeometry x="-200" y="500" width="120" height="60" as="geometry" />
        </mxCell>
        <mxCell id="04fwY_iwob0MZruxPa8H-25" style="edgeStyle=orthogonalEdgeStyle;rounded=0;orthogonalLoop=1;jettySize=auto;html=1;exitX=0;exitY=0.5;exitDx=0;exitDy=0;fontSize=18;" edge="1" parent="1" source="pOlsvwvT2F81IrnThFRr-10" target="04fwY_iwob0MZruxPa8H-8">
          <mxGeometry relative="1" as="geometry" />
        </mxCell>
        <mxCell id="pOlsvwvT2F81IrnThFRr-10" value="Layer" style="rounded=1;whiteSpace=wrap;html=1;fontSize=18;" parent="1" vertex="1">
          <mxGeometry x="-200" y="600" width="120" height="60" as="geometry" />
        </mxCell>
        <mxCell id="04fwY_iwob0MZruxPa8H-20" style="edgeStyle=orthogonalEdgeStyle;rounded=0;orthogonalLoop=1;jettySize=auto;html=1;exitX=1;exitY=0.5;exitDx=0;exitDy=0;entryX=0.5;entryY=0;entryDx=0;entryDy=0;fontSize=18;" edge="1" parent="1" source="pOlsvwvT2F81IrnThFRr-11" target="pOlsvwvT2F81IrnThFRr-9">
          <mxGeometry relative="1" as="geometry" />
        </mxCell>
        <mxCell id="pOlsvwvT2F81IrnThFRr-11" value="Job" style="rounded=1;whiteSpace=wrap;html=1;fontSize=18;" parent="1" vertex="1">
          <mxGeometry x="-280" y="400" width="120" height="60" as="geometry" />
        </mxCell>
        <mxCell id="04fwY_iwob0MZruxPa8H-18" style="edgeStyle=orthogonalEdgeStyle;rounded=0;orthogonalLoop=1;jettySize=auto;html=1;exitX=1;exitY=0.5;exitDx=0;exitDy=0;fontSize=18;" edge="1" parent="1" source="04fwY_iwob0MZruxPa8H-1">
          <mxGeometry relative="1" as="geometry">
            <mxPoint x="-140" y="660" as="targetPoint" />
          </mxGeometry>
        </mxCell>
        <mxCell id="04fwY_iwob0MZruxPa8H-1" value="Term" style="rounded=1;whiteSpace=wrap;html=1;fontSize=18;" vertex="1" parent="1">
          <mxGeometry x="-280" y="700" width="120" height="60" as="geometry" />
        </mxCell>
        <mxCell id="04fwY_iwob0MZruxPa8H-17" style="edgeStyle=orthogonalEdgeStyle;rounded=0;orthogonalLoop=1;jettySize=auto;html=1;exitX=0;exitY=0.5;exitDx=0;exitDy=0;entryX=0.5;entryY=1;entryDx=0;entryDy=0;fontSize=18;" edge="1" parent="1" source="04fwY_iwob0MZruxPa8H-2" target="pOlsvwvT2F81IrnThFRr-10">
          <mxGeometry relative="1" as="geometry" />
        </mxCell>
        <mxCell id="04fwY_iwob0MZruxPa8H-2" value="&lt;div style=&quot;font-size: 18px;&quot;&gt;WordForm&lt;/div&gt;" style="rounded=1;whiteSpace=wrap;html=1;fontSize=18;" vertex="1" parent="1">
          <mxGeometry x="-120" y="700" width="120" height="60" as="geometry" />
        </mxCell>
        <mxCell id="04fwY_iwob0MZruxPa8H-3" value="&lt;div style=&quot;font-size: 18px;&quot;&gt;Evaluation&lt;/div&gt;&lt;div style=&quot;font-size: 18px;&quot;&gt;Controller&lt;/div&gt;" style="rounded=1;whiteSpace=wrap;html=1;fontSize=18;" vertex="1" parent="1">
          <mxGeometry x="-760" y="600" width="120" height="60" as="geometry" />
        </mxCell>
        <mxCell id="04fwY_iwob0MZruxPa8H-33" style="edgeStyle=orthogonalEdgeStyle;rounded=0;orthogonalLoop=1;jettySize=auto;html=1;exitX=0;exitY=0.5;exitDx=0;exitDy=0;entryX=1;entryY=0.5;entryDx=0;entryDy=0;fontSize=18;" edge="1" parent="1" source="04fwY_iwob0MZruxPa8H-4" target="04fwY_iwob0MZruxPa8H-3">
          <mxGeometry relative="1" as="geometry" />
        </mxCell>
        <mxCell id="04fwY_iwob0MZruxPa8H-4" value="&lt;div style=&quot;font-size: 18px;&quot;&gt;Corpus&lt;/div&gt;&lt;div style=&quot;font-size: 18px;&quot;&gt;Confusion&lt;/div&gt;" style="rounded=1;whiteSpace=wrap;html=1;fontSize=18;" vertex="1" parent="1">
          <mxGeometry x="-600" y="600" width="120" height="60" as="geometry" />
        </mxCell>
        <mxCell id="04fwY_iwob0MZruxPa8H-32" style="edgeStyle=orthogonalEdgeStyle;rounded=0;orthogonalLoop=1;jettySize=auto;html=1;exitX=0.5;exitY=1;exitDx=0;exitDy=0;entryX=0.5;entryY=0;entryDx=0;entryDy=0;fontSize=18;" edge="1" parent="1" source="04fwY_iwob0MZruxPa8H-5" target="04fwY_iwob0MZruxPa8H-4">
          <mxGeometry relative="1" as="geometry" />
        </mxCell>
        <mxCell id="04fwY_iwob0MZruxPa8H-5" value="&lt;div style=&quot;font-size: 18px;&quot;&gt;Document&lt;/div&gt;&lt;div style=&quot;font-size: 18px;&quot;&gt;Confusion&lt;/div&gt;" style="rounded=1;whiteSpace=wrap;html=1;fontSize=18;" vertex="1" parent="1">
          <mxGeometry x="-600" y="500" width="120" height="60" as="geometry" />
        </mxCell>
        <mxCell id="04fwY_iwob0MZruxPa8H-31" style="edgeStyle=orthogonalEdgeStyle;rounded=0;orthogonalLoop=1;jettySize=auto;html=1;exitX=0.5;exitY=1;exitDx=0;exitDy=0;entryX=0.5;entryY=0;entryDx=0;entryDy=0;fontSize=18;" edge="1" parent="1" source="04fwY_iwob0MZruxPa8H-6" target="04fwY_iwob0MZruxPa8H-5">
          <mxGeometry relative="1" as="geometry" />
        </mxCell>
        <mxCell id="04fwY_iwob0MZruxPa8H-6" value="&lt;div style=&quot;font-size: 18px;&quot;&gt;Confusion&lt;/div&gt;" style="rounded=1;whiteSpace=wrap;html=1;fontSize=18;" vertex="1" parent="1">
          <mxGeometry x="-600" y="400" width="120" height="60" as="geometry" />
        </mxCell>
        <mxCell id="04fwY_iwob0MZruxPa8H-30" style="edgeStyle=orthogonalEdgeStyle;rounded=0;orthogonalLoop=1;jettySize=auto;html=1;exitX=0;exitY=0.5;exitDx=0;exitDy=0;entryX=1;entryY=0.5;entryDx=0;entryDy=0;fontSize=18;" edge="1" parent="1" source="04fwY_iwob0MZruxPa8H-8" target="04fwY_iwob0MZruxPa8H-4">
          <mxGeometry relative="1" as="geometry" />
        </mxCell>
        <mxCell id="04fwY_iwob0MZruxPa8H-8" value="&lt;div style=&quot;font-size: 18px;&quot;&gt;Layer&lt;/div&gt;&lt;div style=&quot;font-size: 18px;&quot;&gt;Comparison&lt;br style=&quot;font-size: 18px;&quot;&gt;&lt;/div&gt;" style="rounded=1;whiteSpace=wrap;html=1;fontSize=18;" vertex="1" parent="1">
          <mxGeometry x="-440" y="600" width="120" height="60" as="geometry" />
        </mxCell>
        <mxCell id="04fwY_iwob0MZruxPa8H-29" style="edgeStyle=orthogonalEdgeStyle;rounded=0;orthogonalLoop=1;jettySize=auto;html=1;exitX=0.5;exitY=1;exitDx=0;exitDy=0;entryX=0.5;entryY=0;entryDx=0;entryDy=0;fontSize=18;" edge="1" parent="1" source="04fwY_iwob0MZruxPa8H-9" target="04fwY_iwob0MZruxPa8H-8">
          <mxGeometry relative="1" as="geometry" />
        </mxCell>
        <mxCell id="04fwY_iwob0MZruxPa8H-9" value="&lt;div style=&quot;font-size: 18px;&quot;&gt;Confusion&lt;/div&gt;&lt;div style=&quot;font-size: 18px;&quot;&gt;LayerFilter&lt;br style=&quot;font-size: 18px;&quot;&gt;&lt;/div&gt;" style="rounded=1;whiteSpace=wrap;html=1;fontSize=18;" vertex="1" parent="1">
          <mxGeometry x="-440" y="500" width="120" height="60" as="geometry" />
        </mxCell>
        <mxCell id="04fwY_iwob0MZruxPa8H-28" style="edgeStyle=orthogonalEdgeStyle;rounded=0;orthogonalLoop=1;jettySize=auto;html=1;exitX=0.5;exitY=1;exitDx=0;exitDy=0;entryX=0.5;entryY=0;entryDx=0;entryDy=0;fontSize=18;" edge="1" parent="1" source="04fwY_iwob0MZruxPa8H-10" target="04fwY_iwob0MZruxPa8H-9">
          <mxGeometry relative="1" as="geometry" />
        </mxCell>
        <mxCell id="04fwY_iwob0MZruxPa8H-10" value="LayerFilter" style="rounded=1;whiteSpace=wrap;html=1;fontSize=18;" vertex="1" parent="1">
          <mxGeometry x="-440" y="400" width="120" height="60" as="geometry" />
        </mxCell>
        <mxCell id="04fwY_iwob0MZruxPa8H-26" style="edgeStyle=orthogonalEdgeStyle;rounded=0;orthogonalLoop=1;jettySize=auto;html=1;exitX=0.5;exitY=1;exitDx=0;exitDy=0;entryX=0.5;entryY=0;entryDx=0;entryDy=0;fontSize=18;" edge="1" parent="1" source="04fwY_iwob0MZruxPa8H-12" target="04fwY_iwob0MZruxPa8H-13">
          <mxGeometry relative="1" as="geometry" />
        </mxCell>
        <mxCell id="04fwY_iwob0MZruxPa8H-12" value="TermFilter" style="rounded=1;whiteSpace=wrap;html=1;fontSize=18;" vertex="1" parent="1">
          <mxGeometry x="-440" y="200" width="120" height="60" as="geometry" />
        </mxCell>
        <mxCell id="04fwY_iwob0MZruxPa8H-27" style="edgeStyle=orthogonalEdgeStyle;rounded=0;orthogonalLoop=1;jettySize=auto;html=1;exitX=0.5;exitY=1;exitDx=0;exitDy=0;entryX=0.5;entryY=0;entryDx=0;entryDy=0;fontSize=18;" edge="1" parent="1" source="04fwY_iwob0MZruxPa8H-13" target="04fwY_iwob0MZruxPa8H-10">
          <mxGeometry relative="1" as="geometry" />
        </mxCell>
        <mxCell id="04fwY_iwob0MZruxPa8H-13" value="&lt;div style=&quot;font-size: 18px;&quot;&gt;PosLemma&lt;/div&gt;&lt;div style=&quot;font-size: 18px;&quot;&gt;TermFilter&lt;/div&gt;" style="rounded=1;whiteSpace=wrap;html=1;fontSize=18;" vertex="1" parent="1">
          <mxGeometry x="-440" y="300" width="120" height="60" as="geometry" />
        </mxCell>
        <mxCell id="04fwY_iwob0MZruxPa8H-24" style="edgeStyle=orthogonalEdgeStyle;rounded=0;orthogonalLoop=1;jettySize=auto;html=1;exitX=0.5;exitY=0;exitDx=0;exitDy=0;entryX=0.5;entryY=1;entryDx=0;entryDy=0;fontSize=18;" edge="1" parent="1" source="04fwY_iwob0MZruxPa8H-15" target="04fwY_iwob0MZruxPa8H-8">
          <mxGeometry relative="1" as="geometry" />
        </mxCell>
        <mxCell id="04fwY_iwob0MZruxPa8H-15" value="&lt;div style=&quot;font-size: 18px;&quot;&gt;Term&lt;/div&gt;&lt;div style=&quot;font-size: 18px;&quot;&gt;Comparison&lt;/div&gt;" style="rounded=1;whiteSpace=wrap;html=1;fontSize=18;" vertex="1" parent="1">
          <mxGeometry x="-440" y="700" width="120" height="60" as="geometry" />
        </mxCell>
        <mxCell id="04fwY_iwob0MZruxPa8H-23" style="edgeStyle=orthogonalEdgeStyle;rounded=0;orthogonalLoop=1;jettySize=auto;html=1;exitX=0.5;exitY=0;exitDx=0;exitDy=0;entryX=0.5;entryY=1;entryDx=0;entryDy=0;fontSize=18;" edge="1" parent="1" source="04fwY_iwob0MZruxPa8H-16" target="04fwY_iwob0MZruxPa8H-15">
          <mxGeometry relative="1" as="geometry" />
        </mxCell>
        <mxCell id="04fwY_iwob0MZruxPa8H-16" value="&lt;div style=&quot;font-size: 18px;&quot;&gt;WordForm&lt;/div&gt;&lt;div style=&quot;font-size: 18px;&quot;&gt;Comparison&lt;br style=&quot;font-size: 18px;&quot;&gt;&lt;/div&gt;" style="rounded=1;whiteSpace=wrap;html=1;fontSize=18;" vertex="1" parent="1">
          <mxGeometry x="-440" y="800" width="120" height="60" as="geometry" />
        </mxCell>
        <mxCell id="04fwY_iwob0MZruxPa8H-34" value="&lt;font style=&quot;font-size: 48px;&quot;&gt;&lt;font style=&quot;font-size: 36px;&quot;&gt;Downloading a CorpusConfusion&lt;/font&gt;&lt;br&gt;&lt;/font&gt;" style="text;html=1;whiteSpace=wrap;overflow=hidden;rounded=0;" vertex="1" parent="1">
          <mxGeometry x="-760" y="200" width="310" height="180" as="geometry" />
        </mxCell>
      </root>
    </mxGraphModel>
  </diagram>
</mxfile>
